<?xml version="1.0" encoding="UTF-8"?>
<svg width="1200" height="760" viewBox="0 0 1200 760" fill="none" xmlns="http://www.w3.org/2000/svg">
  <defs>
    <linearGradient id="bgGlow-brand-warm" x1="180" y1="80" x2="1020" y2="700" gradientUnits="userSpaceOnUse">
      <stop stop-color="#F5E8E2"/>
      <stop offset="1" stop-color="#F5EDE0"/>
    </linearGradient>
    <filter id="shadow-brand-warm" x="0" y="0" width="1200" height="760" filterUnits="userSpaceOnUse">
      <feDropShadow dx="0" dy="24" stdDeviation="24" flood-color="rgba(60, 40, 20, 0.06)" />
    </filter>
  </defs>
  <rect width="1200" height="760" rx="32" fill="#F5EDE0"/>
  <rect x="40" y="40" width="1120" height="680" rx="28" fill="url(#bgGlow-brand-warm)"/>
  <rect x="82" y="92" width="688" height="576" rx="28" fill="#FAF7F4" filter="url(#shadow-brand-warm)"/>
  <rect x="806" y="92" width="312" height="264" rx="28" fill="#FAF7F4" filter="url(#shadow-brand-warm)"/>
  <rect x="806" y="388" width="312" height="280" rx="28" fill="#FAF7F4" filter="url(#shadow-brand-warm)"/>
  <rect x="82" y="92" width="688" height="10" rx="5" fill="#EBE4DB"/>
  <rect x="82" y="92" width="352" height="10" rx="5" fill="#CC5833"/>
  <text x="130" y="150" fill="#CC5833" font-size="20" font-family="DM Sans" font-weight="700" letter-spacing="2">04</text>
  <text x="198" y="150" fill="#6B6460" font-size="18" font-family="DM Sans" font-weight="600">Light Default</text>
  <text x="130" y="206" fill="#1A1918" font-size="50" font-family="Lora" font-weight="700">品牌暖調</text>
  <text x="130" y="252" fill="#6B6460" font-size="28" font-family="Lora" font-style="italic">Brand Warm</text>
  <text x="130" y="318" fill="#1A1918" font-size="24" font-family="DM Sans" font-weight="600">品牌語氣 / Theme Voice</text>
  <text x="130" y="356" fill="#6B6460" font-size="21" font-family="DM Sans" font-weight="400" font-style="normal"><tspan x="130" dy="0">清晰的資訊節奏，保留設計</tspan><tspan x="130" dy="28">感與閱讀舒適度</tspan></text>
  <text x="130" y="412" fill="#6B6460" font-size="20" font-family="DM Sans" font-weight="400" font-style="normal"><tspan x="130" dy="0">Clear structure, calm contrast,</tspan><tspan x="130" dy="26">and a sharp visual identity</tspan></text>
  <rect x="130" y="458" width="184" height="132" rx="22" fill="#F5E8E2" stroke="#E0D8D0"/>
  <text x="156" y="512" fill="#6B6460" font-size="18" font-family="DM Sans" font-weight="700">KPI</text>
  <text x="156" y="564" fill="#CC5833" font-size="52" font-family="Lora" font-weight="700">84%</text>
  <text x="156" y="598" fill="#6B6460" font-size="19" font-family="DM Sans">Audience retention</text>
  <rect x="340" y="458" width="322" height="132" rx="22" fill="#F5E8E2" stroke="#E0D8D0"/>
  <text x="368" y="512" fill="#1A1918" font-size="20" font-family="DM Sans" font-weight="700">Primary / Card / Accent</text>
  <rect x="368" y="548" width="72" height="18" rx="9" fill="#F5EDE0" stroke="#E0D8D0"/>
  <rect x="456" y="548" width="72" height="18" rx="9" fill="#FAF7F4" stroke="#E0D8D0"/>
  <rect x="544" y="548" width="72" height="18" rx="9" fill="#CC5833" />
  <text x="368" y="578" fill="#6B6460" font-size="16" font-family="DM Sans" font-weight="400" font-style="normal"><tspan x="368" dy="0">Claude-inspired cream and</tspan><tspan x="368" dy="19">brick palette with stronger</tspan></text>
  <text x="840" y="150" fill="#6B6460" font-size="19" font-family="DM Sans" font-weight="700">Icon / Accent</text>
  <g transform="translate(836 186)"><svg width="42" height="42" viewBox="0 0 42 42" fill="none" xmlns="http://www.w3.org/2000/svg">
    <path d="M10 31C10 22 15 11 21 11C27 11 32 22 32 31" stroke="#CC5833" stroke-width="2" stroke-linecap="round"/>
    <path d="M14 25C18 22 24 22 28 25" stroke="#CC5833" stroke-width="2" stroke-linecap="round"/>
    <circle cx="21" cy="13" r="2.5" fill="#CC5833"/>
  </svg></g>
  <text x="836" y="320" fill="#6B6460" font-size="19" font-family="DM Sans" font-weight="700">Typography Pairing</text>
  <text x="836" y="358" fill="#1A1918" font-size="24" font-family="Lora" font-weight="700">Lora</text>
  <text x="836" y="392" fill="#6B6460" font-size="20" font-family="DM Sans">DM Sans</text>
  <text x="836" y="450" fill="#6B6460" font-size="19" font-family="DM Sans" font-weight="700">Mood</text>
  <text x="836" y="486" fill="#1A1918" font-size="22" font-family="DM Sans" font-weight="700">品牌暖調</text>
  <text x="836" y="522" fill="#6B6460" font-size="17" font-family="DM Sans" font-weight="400" font-style="normal"><tspan x="836" dy="0">Claude</tspan><tspan x="836" dy="21">調性延伸的奶油米與磚橘，帶品牌溫度、適合故事與教學型報告。</tspan></text>
  <rect x="836" y="582" width="224" height="8" rx="4" fill="#EBE4DB"/>
  <rect x="836" y="582" width="126" height="8" rx="4" fill="#CC5833"/>
  <text x="836" y="624" fill="#CC5833" font-size="16" font-family="DM Sans" font-weight="700">Preview / Auto Generated</text>
</svg>