<?xml version="1.0" encoding="UTF-8"?>
<svg width="1200" height="760" viewBox="0 0 1200 760" fill="none" xmlns="http://www.w3.org/2000/svg">
  <defs>
    <linearGradient id="bgGlow-business" x1="180" y1="80" x2="1020" y2="700" gradientUnits="userSpaceOnUse">
      <stop stop-color="rgba(196, 160, 106, 0.14)"/>
      <stop offset="1" stop-color="#171B22"/>
    </linearGradient>
    <filter id="shadow-business" x="0" y="0" width="1200" height="760" filterUnits="userSpaceOnUse">
      <feDropShadow dx="0" dy="24" stdDeviation="24" flood-color="rgba(0, 0, 0, 0.26)" />
    </filter>
  </defs>
  <rect width="1200" height="760" rx="32" fill="#171B22"/>
  <rect x="40" y="40" width="1120" height="680" rx="28" fill="url(#bgGlow-business)"/>
  <rect x="82" y="92" width="688" height="576" rx="28" fill="#20262E" filter="url(#shadow-business)"/>
  <rect x="806" y="92" width="312" height="264" rx="28" fill="#20262E" filter="url(#shadow-business)"/>
  <rect x="806" y="388" width="312" height="280" rx="28" fill="#20262E" filter="url(#shadow-business)"/>
  <rect x="82" y="92" width="688" height="10" rx="5" fill="#2E343C"/>
  <rect x="82" y="92" width="352" height="10" rx="5" fill="#C4A06A"/>
  <text x="130" y="150" fill="#C4A06A" font-size="20" font-family="Montserrat" font-weight="700" letter-spacing="2">01</text>
  <text x="198" y="150" fill="#C6BEB4" font-size="18" font-family="Montserrat" font-weight="600">Dark Variant</text>
  <text x="130" y="206" fill="#F5F1EA" font-size="50" font-family="Playfair Display" font-weight="700">商務香檳金</text>
  <text x="130" y="252" fill="#C6BEB4" font-size="28" font-family="Playfair Display" font-style="italic">Business</text>
  <text x="130" y="318" fill="#F5F1EA" font-size="24" font-family="Montserrat" font-weight="600">品牌語氣 / Theme Voice</text>
  <text x="130" y="356" fill="#C6BEB4" font-size="21" font-family="Montserrat" font-weight="400" font-style="normal"><tspan x="130" dy="0">清晰的資訊節奏，保留設計</tspan><tspan x="130" dy="28">感與閱讀舒適度</tspan></text>
  <text x="130" y="412" fill="#C6BEB4" font-size="20" font-family="Montserrat" font-weight="400" font-style="normal"><tspan x="130" dy="0">Clear structure, calm contrast,</tspan><tspan x="130" dy="26">and a sharp visual identity</tspan></text>
  <rect x="130" y="458" width="184" height="132" rx="22" fill="#262D36" stroke="#38322D"/>
  <text x="156" y="512" fill="#C6BEB4" font-size="18" font-family="Montserrat" font-weight="700">KPI</text>
  <text x="156" y="564" fill="#C4A06A" font-size="52" font-family="Playfair Display" font-weight="700">84%</text>
  <text x="156" y="598" fill="#C6BEB4" font-size="19" font-family="Montserrat">Audience retention</text>
  <rect x="340" y="458" width="322" height="132" rx="22" fill="#262D36" stroke="#38322D"/>
  <text x="368" y="512" fill="#F5F1EA" font-size="20" font-family="Montserrat" font-weight="700">Primary / Card / Accent</text>
  <rect x="368" y="548" width="72" height="18" rx="9" fill="#171B22" stroke="#38322D"/>
  <rect x="456" y="548" width="72" height="18" rx="9" fill="#20262E" stroke="#38322D"/>
  <rect x="544" y="548" width="72" height="18" rx="9" fill="#C4A06A" />
  <text x="368" y="578" fill="#C6BEB4" font-size="16" font-family="Montserrat" font-weight="400" font-style="normal"><tspan x="368" dy="0">Refined champagne-gold</tspan><tspan x="368" dy="19">business theme for proposals,</tspan></text>
  <text x="840" y="150" fill="#C6BEB4" font-size="19" font-family="Montserrat" font-weight="700">Icon / Accent</text>
  <g transform="translate(836 186)"><svg width="42" height="42" viewBox="0 0 42 42" fill="none" xmlns="http://www.w3.org/2000/svg">
      <rect x="5" y="10" width="32" height="24" rx="6" stroke="#C4A06A" stroke-width="2"/>
      <path d="M15 10V7C15 5.9 15.9 5 17 5H25C26.1 5 27 5.9 27 7V10" stroke="#C4A06A" stroke-width="2"/>
      <path d="M5 18H37" stroke="#C4A06A" stroke-width="2"/>
    </svg></g>
  <text x="836" y="320" fill="#C6BEB4" font-size="19" font-family="Montserrat" font-weight="700">Typography Pairing</text>
  <text x="836" y="358" fill="#F5F1EA" font-size="24" font-family="Playfair Display" font-weight="700">Playfair Display</text>
  <text x="836" y="392" fill="#C6BEB4" font-size="20" font-family="Montserrat">Montserrat</text>
  <text x="836" y="450" fill="#C6BEB4" font-size="19" font-family="Montserrat" font-weight="700">Mood</text>
  <text x="836" y="486" fill="#F5F1EA" font-size="22" font-family="Montserrat" font-weight="700">商務香檳金</text>
  <text x="836" y="522" fill="#C6BEB4" font-size="17" font-family="Montserrat" font-weight="400" font-style="normal"><tspan x="836" dy="0">亮底香檳金商務風，沉</tspan><tspan x="836" dy="21">穩、雜誌感、適合提案</tspan></text>
  <rect x="836" y="582" width="224" height="8" rx="4" fill="#2E343C"/>
  <rect x="836" y="582" width="126" height="8" rx="4" fill="#C4A06A"/>
  <text x="836" y="624" fill="#C4A06A" font-size="16" font-family="Montserrat" font-weight="700">Preview / Auto Generated</text>
</svg>