<?xml version="1.0" encoding="UTF-8"?>
<svg width="1200" height="760" viewBox="0 0 1200 760" fill="none" xmlns="http://www.w3.org/2000/svg">
  <defs>
    <linearGradient id="bgGlow-light-tech" x1="180" y1="80" x2="1020" y2="700" gradientUnits="userSpaceOnUse">
      <stop stop-color="rgba(35, 196, 204, 0.14)"/>
      <stop offset="1" stop-color="#0E1726"/>
    </linearGradient>
    <filter id="shadow-light-tech" x="0" y="0" width="1200" height="760" filterUnits="userSpaceOnUse">
      <feDropShadow dx="0" dy="24" stdDeviation="24" flood-color="rgba(0, 0, 0, 0.28)" />
    </filter>
  </defs>
  <rect width="1200" height="760" rx="32" fill="#0E1726"/>
  <rect x="40" y="40" width="1120" height="680" rx="28" fill="url(#bgGlow-light-tech)"/>
  <rect x="82" y="92" width="688" height="576" rx="28" fill="#152133" filter="url(#shadow-light-tech)"/>
  <rect x="806" y="92" width="312" height="264" rx="28" fill="#152133" filter="url(#shadow-light-tech)"/>
  <rect x="806" y="388" width="312" height="280" rx="28" fill="#152133" filter="url(#shadow-light-tech)"/>
  <rect x="82" y="92" width="688" height="10" rx="5" fill="#1E2E42"/>
  <rect x="82" y="92" width="352" height="10" rx="5" fill="#23C4CC"/>
  <text x="130" y="150" fill="#23C4CC" font-size="20" font-family="Space Grotesk" font-weight="700" letter-spacing="2">02</text>
  <text x="198" y="150" fill="#A8B6C8" font-size="18" font-family="Space Grotesk" font-weight="600">Dark Variant</text>
  <text x="130" y="206" fill="#EBF4FF" font-size="50" font-family="Space Grotesk" font-weight="700">亮色科技青</text>
  <text x="130" y="252" fill="#A8B6C8" font-size="28" font-family="Space Grotesk" font-style="italic">Light Tech</text>
  <text x="130" y="318" fill="#EBF4FF" font-size="24" font-family="Space Grotesk" font-weight="600">品牌語氣 / Theme Voice</text>
  <text x="130" y="356" fill="#A8B6C8" font-size="21" font-family="Space Grotesk" font-weight="400" font-style="normal"><tspan x="130" dy="0">清晰的資訊節奏，保留設計</tspan><tspan x="130" dy="28">感與閱讀舒適度</tspan></text>
  <text x="130" y="412" fill="#A8B6C8" font-size="20" font-family="Space Grotesk" font-weight="400" font-style="normal"><tspan x="130" dy="0">Clear structure, calm contrast,</tspan><tspan x="130" dy="26">and a sharp visual identity</tspan></text>
  <rect x="130" y="458" width="184" height="132" rx="22" fill="#1A2B3F" stroke="#22344A"/>
  <text x="156" y="512" fill="#A8B6C8" font-size="18" font-family="Space Grotesk" font-weight="700">KPI</text>
  <text x="156" y="564" fill="#23C4CC" font-size="52" font-family="Space Grotesk" font-weight="700">84%</text>
  <text x="156" y="598" fill="#A8B6C8" font-size="19" font-family="Space Grotesk">Audience retention</text>
  <rect x="340" y="458" width="322" height="132" rx="22" fill="#1A2B3F" stroke="#22344A"/>
  <text x="368" y="512" fill="#EBF4FF" font-size="20" font-family="Space Grotesk" font-weight="700">Primary / Card / Accent</text>
  <rect x="368" y="548" width="72" height="18" rx="9" fill="#0E1726" stroke="#22344A"/>
  <rect x="456" y="548" width="72" height="18" rx="9" fill="#152133" stroke="#22344A"/>
  <rect x="544" y="548" width="72" height="18" rx="9" fill="#23C4CC" />
  <text x="368" y="578" fill="#A8B6C8" font-size="16" font-family="Space Grotesk" font-weight="400" font-style="normal"><tspan x="368" dy="0">Bright, modern tech theme with</tspan><tspan x="368" dy="19">glacier whites and restrained</tspan></text>
  <text x="840" y="150" fill="#A8B6C8" font-size="19" font-family="Space Grotesk" font-weight="700">Icon / Accent</text>
  <g transform="translate(836 186)"><svg width="42" height="42" viewBox="0 0 42 42" fill="none" xmlns="http://www.w3.org/2000/svg">
      <rect x="7" y="7" width="28" height="28" rx="7" stroke="#23C4CC" stroke-width="2"/>
      <path d="M21 12V30M12 21H30" stroke="#23C4CC" stroke-width="2"/>
      <circle cx="21" cy="21" r="5" fill="#23C4CC" opacity="0.18"/>
    </svg></g>
  <text x="836" y="320" fill="#A8B6C8" font-size="19" font-family="Space Grotesk" font-weight="700">Typography Pairing</text>
  <text x="836" y="358" fill="#EBF4FF" font-size="24" font-family="Space Grotesk" font-weight="700">Space Grotesk</text>
  <text x="836" y="392" fill="#A8B6C8" font-size="20" font-family="Space Grotesk">Space Grotesk</text>
  <text x="836" y="450" fill="#A8B6C8" font-size="19" font-family="Space Grotesk" font-weight="700">Mood</text>
  <text x="836" y="486" fill="#EBF4FF" font-size="22" font-family="Space Grotesk" font-weight="700">亮色科技青</text>
  <text x="836" y="522" fill="#A8B6C8" font-size="17" font-family="Space Grotesk" font-weight="400" font-style="normal"><tspan x="836" dy="0">冷白底科技青，資訊感清楚、適合產品說明、AI</tspan><tspan x="836" dy="21">工具與資料簡報。</tspan></text>
  <rect x="836" y="582" width="224" height="8" rx="4" fill="#1E2E42"/>
  <rect x="836" y="582" width="126" height="8" rx="4" fill="#23C4CC"/>
  <text x="836" y="624" fill="#23C4CC" font-size="16" font-family="Space Grotesk" font-weight="700">Preview / Auto Generated</text>
</svg>